<?xml version="1.0" ?><svg height="128" id="svg8" version="1.1" viewBox="0 0 33.866666 33.866668" width="128" xmlns="http://www.w3.org/2000/svg" xmlns:cc="http://creativecommons.org/ns#" xmlns:dc="http://purl.org/dc/elements/1.1/" xmlns:inkscape="http://www.inkscape.org/namespaces/inkscape" xmlns:rdf="http://www.w3.org/1999/02/22-rdf-syntax-ns#" xmlns:sodipodi="http://sodipodi.sourceforge.net/DTD/sodipodi-0.dtd" xmlns:svg="http://www.w3.org/2000/svg" xmlns:xlink="http://www.w3.org/1999/xlink"><defs id="defs2"><linearGradient id="linearGradient2202"><stop id="stop2198" offset="0" style="stop-color:#f6f600;stop-opacity:1;"/><stop id="stop2200" offset="1" style="stop-color:#f69134;stop-opacity:1"/></linearGradient><linearGradient gradientTransform="matrix(0.39352029,0,0,0.39352035,-185.27183,93.82285)" gradientUnits="userSpaceOnUse" id="linearGradient3363" x1="12.262755" x2="12.262755" xlink:href="#linearGradient2202" y1="9.0164375" y2="14.680936"/></defs><g id="layer1"><path d="m 18.855602,12.938228 v 6.518982 h 3.67936 c 0.879475,0 1.400501,-0.728135 1.5875,-1.5875 l 0.727604,-3.343982 c 0.186998,-0.859365 -0.708025,-1.5875 -1.5875,-1.5875 z" id="path17100" style="fill:#00a1ff;stroke:none;stroke-width:0.264583;stroke-linecap:square;stroke-dasharray:0.264583, 1.05833000000000022;paint-order:fill markers stroke;fill-opacity:1"/><path d="m 10.579103,12.938228 c -0.8794751,0 -1.5875001,0.708025 -1.5875001,1.5875 v 3.343982 c 0,0.879475 0.708025,1.5875 1.5875001,1.5875 h 3.129605 v -6.518982 z" id="path17092" style="fill:#00a1ff;stroke:none;stroke-width:0.264583;stroke-linecap:square;stroke-dasharray:0.264583, 1.05833000000000022;paint-order:fill markers stroke;fill-opacity:1"/><path d="M 12.960353,5.9898152 V 31.237369 c 0,0.879475 0.708025,1.5875 1.5875,1.5875 h 3.343982 c 0.879475,0 1.5875,-0.708025 1.5875,-1.5875 V 10.78177 c 0,-2.3767688 0.535298,-3.2044548 2.848921,-3.2044548 h 0.678322 c 0.879475,0 1.5875,-0.708025 1.5875,-1.5875 V 2.6458333 c 0,-0.879475 -0.708025,-1.5875 -1.5875,-1.5875 h -5.114743 c -3.365272,0 -4.931482,2.0545496 -4.931482,4.9314819 z" id="rect17087" style="fill:#00a1ff;stroke:none;stroke-width:0.264583;stroke-linecap:square;stroke-dasharray:0.264583, 1.05833000000000022;paint-order:fill markers stroke;fill-opacity:1"/></g></svg>
