<svg xmlns="http://www.w3.org/2000/svg" viewBox="0 0 64 64" fill="#dc5824">
  <path d="m29 16 2 1h1v1a5 5 0 0 0 0 1c0 2 2 4 4 4s4-2 5-4v1h2l2-1a12 12 0 0 0 2-2l-3 2h-1l-1-1c-1-1-2-4-6-4l-4 2-2-1-3-1 2 2m7 0c2 0 3 1 3 3s-1 3-3 3l-3-3 3-3"/>
  <circle cx="36.3" cy="18.5" r="1.5"/>
  <path d="M55 45c0-4-2-7-4-9l-2-5a43 43 0 0 1 4 1c4 1 4 6 4 6v3l2-2s4-5 3-11c-1-4-5-8-8-10l-3-5C47 7 38 2 29 2l-7 1-4 1 4 1h1l-8 3-3 3-2 1h2l3 2c-2 1-5 2-6 5l-3 9v2l1-1-2 6 4-3v1c-5 3-6 10-6 10 3-3 6-3 6-3-6 3-7 13-7 13l5-3c-5 7-2 12-2 12h56s1-11-6-17m5-16-1 6c-1-2-2-4-5-5l-9-2-6-1a41 41 0 0 1 10-1h1v-6h1c3 0 8 4 9 9M49 52v1l-6-8 1 4v8c-3-2-4-5-4-5l-1-2-1 2s-2 4-7 7c-3-4-4-9-4-10l-1-2-1 2-6 3c-5-6-3-11-3-11l1-4-3 3-2 2-1-5c-1-4 0-8 2-10v-1h-1a7 7 0 0 0-1 0H8l2-5c2-4 5-5 7-6h1l-1-1a6 6 0 0 0-3-3l2-2 9-2h2l-1-1a5 5 0 0 0-1-2 22 22 0 0 1 4 0c8 0 17 4 21 10a16 16 0 0 1 1 4h-2v-2 2a2 2 0 0 0-1 0 13 13 0 0 0 0-2l-4-4a18 18 0 0 1 3 4l1 3v5h-2l-9 1h-2l1 2c3 3 5 3 9 3l2 1 3 6c2 4 5 7-1 15"/>
  <path d="m52 24 1-1c-1-1-1 0-2 1v1l1-1m-4 16a9 9 0 0 1 0 1 11 11 0 0 0-1 0l-1-2a14 14 0 0 0-3-2h-1l1 1a13 13 0 0 1-1 4v2a87 87 0 0 1-2-3 48 48 0 0 1-2-4l-2-3v4l-1 4a10 10 0 0 1-2 2 9 9 0 0 1-1 1 40 40 0 0 1-1-2 43 43 0 0 1-1-2l-1-6-1-2-1 1a16 16 0 0 1-2 3 13 13 0 0 1-3 2 11 11 0 0 1 0-1 12 12 0 0 1-1-2 11 11 0 0 1 1-5 11 11 0 0 0-1 5 12 12 0 0 0 1 4l2-1 2-1a16 16 0 0 0 1-2l2 5a36 36 0 0 0 1 3l1 3v1l1-1 2-1a11 11 0 0 0 2-3 13 13 0 0 0 1-3l2 2a50 50 0 0 0 2 4l1 2 1-2a14 14 0 0 0 1-4v-3a13 13 0 0 1 4 3v1-1l1-2-1-3v3M23 24a6 6 0 0 0 3 0 24 24 0 0 0-1 1 36 36 0 0 0 0 4 21 21 0 0 0 4-1 11 11 0 0 0 2-1l1-1-1 1-2 1a25 25 0 0 1-3 0 51 51 0 0 1 1-5l1-2-2 1-3 1a9 9 0 0 1-1 0 41 41 0 0 0 1-2l3-2v-1h-1a9 9 0 0 1-2 0h-1l2 1-2 1-2 2-1 1h1a9 9 0 0 0 1 1h2m-8 8h-1a9 9 0 0 1 0-1l2-2-2 2a5 5 0 0 0-1 1v2h1l3-2v2l1-2v-1l-3 1m10-20-2-1h-4 3l3 1m2 0-2-2-3-1a15 15 0 0 1 3 1l2 2"/>
  <path d="m28 11-1-2-2-1 2 2 1 1"/>
</svg>
